<svg width="37" height="37" viewBox="0 0 37 37" fill="none" xmlns="http://www.w3.org/2000/svg">
<rect width="37" height="37" rx="18.5" fill="white"/>
<path d="M33.6168 15.4806H32.375V15.4166H18.5V21.5833H27.2127C25.9416 25.1731 22.526 27.75 18.5 27.75C13.3917 27.75 9.24998 23.6083 9.24998 18.5C9.24998 13.3917 13.3917 9.24998 18.5 9.24998C20.858 9.24998 23.0032 10.1395 24.6366 11.5925L28.9972 7.23194C26.2438 4.66583 22.5607 3.08331 18.5 3.08331C9.98613 3.08331 3.08331 9.98613 3.08331 18.5C3.08331 27.0138 9.98613 33.9166 18.5 33.9166C27.0138 33.9166 33.9166 27.0138 33.9166 18.5C33.9166 17.4663 33.8103 16.4573 33.6168 15.4806Z" fill="#FFC107"/>
<path d="M4.8609 11.3243L9.92605 15.0389C11.2966 11.6457 14.6158 9.24998 18.5 9.24998C20.858 9.24998 23.0032 10.1395 24.6366 11.5925L28.9972 7.23194C26.2438 4.66583 22.5608 3.08331 18.5 3.08331C12.5785 3.08331 7.44319 6.42642 4.8609 11.3243Z" fill="#FF3D00"/>
<path d="M18.5 33.9167C22.4821 33.9167 26.1004 32.3927 28.8361 29.9145L24.0647 25.8769C22.4648 27.0935 20.5099 27.7516 18.5 27.75C14.4901 27.75 11.0854 25.1931 9.8027 21.6249L4.77533 25.4984C7.32679 30.4911 12.5083 33.9167 18.5 33.9167Z" fill="#4CAF50"/>
<path d="M33.6168 15.4807H32.375V15.4167H18.5V21.5834H27.2127C26.6047 23.2918 25.5095 24.7848 24.0623 25.8777L24.0646 25.8761L28.8361 29.9137C28.4985 30.2205 33.9167 26.2084 33.9167 18.5C33.9167 17.4663 33.8103 16.4573 33.6168 15.4807Z" fill="#1976D2"/>
</svg>
