<svg width="243" height="256" viewBox="0 0 243 256" fill="none" xmlns="http://www.w3.org/2000/svg">
<g filter="url(#filter0_d_119_123)">
<path d="M48.7351 125.99L184.115 11.7592L146.569 100.086L196.777 137.641M48.7351 125.99L119.516 131.56L105.419 144.995M48.7351 125.99L55.5728 141.073L105.419 144.995M105.419 144.995L32 243.037M32 243.037L196.777 137.641M32 243.037L194.894 161.567L196.777 137.641" stroke="#00FFDA" stroke-width="5" shape-rendering="crispEdges"/>
</g>
<g filter="url(#filter1_d_119_123)">
<path d="M74.0607 129.084C72.9495 129.812 71.7755 130.37 70.5385 130.759C69.3061 131.125 68.2176 131.274 67.273 131.204L66.7739 128.031C67.6655 128.078 68.6139 127.964 69.6191 127.689C70.6244 127.413 71.542 127.004 72.372 126.461C73.2958 125.856 73.8909 125.275 74.1574 124.718C74.4152 124.148 74.3951 123.635 74.0972 123.18C73.8781 122.845 73.5646 122.659 73.1567 122.62C72.7533 122.559 72.3004 122.597 71.7977 122.735C71.3085 122.864 70.6632 123.076 69.8619 123.371C68.6245 123.817 67.5811 124.137 66.7319 124.33C65.8827 124.522 65.0264 124.499 64.163 124.261C63.313 124.014 62.5814 123.422 61.968 122.485C61.4335 121.669 61.1724 120.788 61.1848 119.843C61.1885 118.884 61.505 117.922 62.1345 116.955C62.7773 115.98 63.7413 115.072 65.0265 114.23C65.9234 113.643 66.8704 113.176 67.8674 112.83C68.8644 112.483 69.8156 112.3 70.721 112.281L71.3337 115.409C69.5532 115.522 68.0137 116.004 66.7151 116.854C65.8048 117.45 65.2251 118.04 64.9761 118.623C64.7405 119.198 64.7804 119.727 65.0959 120.209C65.4113 120.691 65.8956 120.89 66.5486 120.807C67.2063 120.701 68.125 120.425 69.3048 119.978C70.5423 119.531 71.5856 119.212 72.4349 119.019C73.2841 118.827 74.1293 118.847 74.9705 119.08C75.8251 119.305 76.5591 119.886 77.1725 120.823C77.6982 121.626 77.9526 122.512 77.9355 123.479C77.9231 124.424 77.5955 125.384 76.9527 126.36C76.3098 127.335 75.3458 128.243 74.0607 129.084ZM81.0781 108.485C82.0821 107.828 83.1458 107.467 84.2691 107.401C85.3971 107.313 86.4713 107.537 87.4919 108.074C88.5038 108.597 89.3733 109.414 90.1006 110.525C90.8279 111.636 91.2333 112.767 91.3168 113.917C91.3915 115.054 91.1672 116.128 90.6439 117.14C90.1252 118.13 89.3638 118.953 88.3598 119.61C86.9809 120.513 85.6117 120.787 84.2523 120.434L87.5514 125.474L84.4188 127.525L74.7975 112.826L77.7896 110.867L78.6045 112.112C78.7676 110.667 79.5921 109.458 81.0781 108.485ZM86.1352 117.395C86.9384 116.869 87.4191 116.172 87.5774 115.303C87.7402 114.413 87.5237 113.512 86.9278 112.602C86.332 111.692 85.5977 111.14 84.7251 110.946C83.8572 110.73 83.0216 110.885 82.2183 111.411C81.4151 111.936 80.9321 112.645 80.7692 113.535C80.611 114.404 80.8298 115.293 81.4257 116.203C82.0215 117.114 82.7534 117.677 83.6214 117.893C84.494 118.086 85.3319 117.92 86.1352 117.395ZM100.979 111.35C99.8413 112.095 98.6638 112.531 97.4468 112.658C96.2344 112.764 95.0978 112.561 94.037 112.05C92.9763 111.54 92.0954 110.749 91.3944 109.678C90.6934 108.607 90.3212 107.484 90.2779 106.307C90.2346 105.131 90.5081 104.015 91.0983 102.959C91.6932 101.882 92.5596 100.97 93.6975 100.225C94.8354 99.4806 96.0106 99.0556 97.223 98.9505C98.4266 98.8319 99.5588 99.0279 100.62 99.5383C101.68 100.049 102.561 100.839 103.262 101.91C103.963 102.981 104.335 104.105 104.379 105.281C104.422 106.458 104.153 107.58 103.571 108.65C102.981 109.705 102.117 110.605 100.979 111.35ZM99.2968 108.78C100.1 108.254 100.581 107.557 100.739 106.689C100.902 105.798 100.685 104.897 100.089 103.987C99.4936 103.077 98.7593 102.525 97.8867 102.331C97.0187 102.115 96.1831 102.27 95.3799 102.796C94.5767 103.322 94.0936 104.03 93.9308 104.92C93.7592 105.798 93.9713 106.691 94.5672 107.602C95.163 108.512 95.9016 109.071 96.783 109.278C97.6556 109.472 98.4935 109.306 99.2968 108.78ZM115.518 100.859C115.359 101.288 115.092 101.711 114.715 102.13C114.344 102.526 113.91 102.886 113.415 103.211C112.13 104.052 110.917 104.377 109.779 104.185C108.653 103.985 107.674 103.249 106.842 101.977L103.937 97.539L102.27 98.63L100.693 96.2203L102.36 95.1293L100.638 92.4987L103.77 90.4483L105.492 93.0789L108.183 91.3176L109.76 93.7273L107.07 95.4886L109.948 99.8863C110.246 100.341 110.592 100.622 110.986 100.727C111.385 100.81 111.798 100.712 112.227 100.431C112.722 100.107 113.056 99.6973 113.229 99.2017L115.518 100.859ZM107.866 85.3297L110.998 83.2793L120.751 98.1792L117.618 100.23L107.866 85.3297ZM116.587 85.4728L119.719 83.4223L126.791 94.2258L123.658 96.2763L116.587 85.4728ZM117.167 82.9415C116.592 83.3183 116.014 83.4576 115.433 83.3595C114.853 83.2614 114.4 82.9647 114.076 82.4694C113.752 81.9741 113.661 81.4408 113.803 80.8695C113.946 80.2982 114.305 79.8242 114.88 79.4474C115.456 79.0706 116.03 78.9246 116.601 79.0093C117.173 79.094 117.617 79.3773 117.932 79.8593C118.274 80.3814 118.378 80.9347 118.244 81.5194C118.102 82.0907 117.743 82.5647 117.167 82.9415ZM133.772 74.2246L139.66 83.2208C140.957 85.2021 141.405 87.012 141.006 88.6506C140.606 90.2892 139.415 91.757 137.434 93.0538C136.389 93.7373 135.316 94.2585 134.212 94.6176C133.108 94.9766 132.091 95.1167 131.16 95.0378L130.933 91.9738C131.633 92.0507 132.402 91.9685 133.238 91.727C134.083 91.4989 134.854 91.1571 135.55 90.7014C136.634 89.9917 137.269 89.2226 137.453 88.3943C137.66 87.5706 137.439 86.6635 136.79 85.6728L136.488 85.211C136.259 86.6424 135.414 87.8357 133.955 88.7908C132.964 89.4393 131.914 89.8209 130.803 89.9358C129.698 90.0285 128.645 89.8377 127.646 89.3633C126.647 88.8889 125.811 88.1363 125.136 87.1055C124.461 86.0747 124.106 85.0066 124.071 83.9013C124.036 82.796 124.287 81.7619 124.823 80.799C125.364 79.814 126.13 78.9972 127.12 78.3488C128.686 77.3236 130.215 77.0591 131.707 77.5554L130.8 76.1698L133.772 74.2246ZM132.895 85.813C133.725 85.2697 134.243 84.5863 134.45 83.7626C134.661 82.9168 134.508 82.0989 133.991 81.3091C133.474 80.5192 132.791 80.0586 131.94 79.9271C131.093 79.7736 130.255 79.9684 129.425 80.5117C128.595 81.055 128.074 81.7495 127.863 82.5953C127.643 83.4278 127.792 84.2389 128.309 85.0288C128.826 85.8186 129.514 86.2859 130.374 86.4308C131.225 86.5622 132.065 86.3563 132.895 85.813ZM143.149 67.8575C144.487 66.9812 145.828 66.6774 147.17 66.9462C148.526 67.2061 149.721 68.1259 150.755 69.7056L154.803 75.8905L151.671 77.941L147.938 72.238C147.377 71.3812 146.773 70.868 146.127 70.6984C145.472 70.5153 144.789 70.656 144.08 71.1204C143.29 71.6374 142.823 72.2969 142.678 73.0989C142.525 73.8876 142.764 74.7638 143.395 75.7277L146.891 81.0692L143.759 83.1196L134.006 68.2196L137.139 66.1692L140.556 71.3902C140.699 70.7036 140.995 70.0604 141.444 69.4606C141.884 68.8475 142.452 68.3131 143.149 67.8575ZM164.269 68.9489C164.11 69.378 163.842 69.8018 163.466 70.2202C163.094 70.6165 162.661 70.9767 162.166 71.3009C160.88 72.1421 159.668 72.467 158.53 72.2754C157.404 72.0751 156.425 71.339 155.593 70.0672L152.688 65.6294L151.021 66.7203L149.444 64.3106L151.111 63.2197L149.389 60.5891L152.521 58.5386L154.243 61.1692L156.934 59.408L158.511 61.8177L155.82 63.5789L158.699 67.9766C158.997 68.4318 159.343 68.7121 159.737 68.8175C160.136 68.9007 160.549 68.8021 160.978 68.5217C161.473 68.1975 161.807 67.7876 161.98 67.2921L164.269 68.9489Z" fill="#00FFDA"/>
</g>
<g filter="url(#filter2_d_119_123)">
<path d="M92.1775 189.285C90.8282 190.339 89.3785 191.004 87.8284 191.281C86.281 191.535 84.7884 191.391 83.3503 190.849C81.9151 190.285 80.6853 189.348 79.6612 188.036C78.637 186.725 78.0302 185.311 77.8406 183.794C77.6537 182.255 77.8761 180.772 78.5076 179.345C79.1419 177.895 80.14 176.639 81.5019 175.575C82.6494 174.679 83.8411 174.074 85.0767 173.758C86.325 173.433 87.5599 173.403 88.7813 173.667L88.2321 177.019C86.5292 176.684 85.0158 177.034 83.6917 178.068C82.872 178.708 82.2834 179.462 81.9258 180.33C81.5584 181.185 81.443 182.077 81.5795 183.006C81.7287 183.925 82.1233 184.794 82.7634 185.614C83.4035 186.433 84.1512 187.027 85.0065 187.394C85.8744 187.752 86.7728 187.862 87.7015 187.726C88.6203 187.577 89.4896 187.182 90.3093 186.542C91.6334 185.508 92.3344 184.118 92.4124 182.372L95.7977 182.652C95.7679 183.913 95.444 185.11 94.8259 186.243C94.2079 187.375 93.3251 188.389 92.1775 189.285ZM97.4484 168.177C98.7094 167.193 100.02 166.778 101.38 166.934C102.753 167.08 104.02 167.897 105.182 169.385L109.732 175.211L106.781 177.516L102.586 172.144C101.956 171.337 101.311 170.876 100.653 170.76C99.9847 170.633 99.3164 170.83 98.6481 171.351C97.904 171.933 97.4935 172.629 97.4165 173.44C97.3297 174.239 97.6408 175.092 98.3498 176L102.279 181.031L99.3282 183.336L88.3677 169.3L91.3186 166.996L95.1592 171.914C95.2448 171.218 95.4863 170.552 95.8836 169.917C96.271 169.269 96.7926 168.69 97.4484 168.177ZM108.446 159.589C110.022 158.358 111.528 157.791 112.964 157.888C114.39 157.972 115.694 158.771 116.876 160.284L121.41 166.091L118.649 168.248L117.659 166.981C117.843 168.36 117.178 169.64 115.665 170.822C114.883 171.432 114.099 171.832 113.312 172.02C112.537 172.198 111.817 172.172 111.15 171.942C110.483 171.712 109.918 171.3 109.455 170.708C108.716 169.762 108.488 168.742 108.771 167.648C109.067 166.545 109.958 165.412 111.446 164.25L113.792 162.418C113.29 161.775 112.71 161.436 112.053 161.401C111.387 161.353 110.662 161.634 109.881 162.245C109.338 162.668 108.871 163.175 108.479 163.765C108.09 164.333 107.826 164.905 107.687 165.48L105.018 164.246C105.267 163.422 105.693 162.602 106.295 161.787C106.909 160.962 107.626 160.229 108.446 159.589ZM114.851 168.26C115.356 167.866 115.715 167.403 115.929 166.87C116.132 166.326 116.139 165.762 115.948 165.18L115.136 164.14L113.112 165.72C111.901 166.666 111.606 167.536 112.227 168.33C112.522 168.708 112.904 168.898 113.371 168.898C113.841 168.876 114.334 168.663 114.851 168.26ZM120.001 152.971C119.97 152.204 120.153 151.462 120.548 150.747C120.957 150.023 121.552 149.355 122.334 148.744L124.461 151.468C124.113 151.699 123.883 151.859 123.769 151.947C122.924 152.607 122.449 153.364 122.344 154.217C122.23 155.058 122.541 155.951 123.28 156.897L127.032 161.702L124.081 164.006L116.134 153.829L118.953 151.628L120.001 152.971ZM134.612 139.399L141.23 147.874C142.687 149.74 143.285 151.506 143.023 153.172C142.761 154.839 141.697 156.4 139.831 157.858C138.847 158.626 137.82 159.235 136.751 159.685C135.681 160.134 134.678 160.359 133.744 160.358L133.262 157.323C133.967 157.342 134.726 157.196 135.539 156.885C136.362 156.588 137.102 156.183 137.757 155.671C138.779 154.873 139.347 154.054 139.462 153.213C139.599 152.375 139.303 151.489 138.575 150.556L138.235 150.121C138.125 151.567 137.383 152.826 136.009 153.9C135.076 154.628 134.061 155.096 132.964 155.303C131.869 155.488 130.805 155.385 129.77 154.996C128.735 154.606 127.838 153.926 127.08 152.955C126.322 151.984 125.879 150.949 125.752 149.851C125.625 148.752 125.788 147.701 126.243 146.697C126.699 145.67 127.394 144.792 128.328 144.064C129.803 142.911 131.305 142.52 132.832 142.891L131.813 141.586L134.612 139.399ZM134.704 151.021C135.486 150.41 135.946 149.686 136.083 148.848C136.223 147.987 136.003 147.185 135.422 146.441C134.841 145.697 134.121 145.295 133.262 145.235C132.406 145.152 131.587 145.416 130.805 146.027C130.023 146.637 129.562 147.373 129.422 148.233C129.272 149.081 129.488 149.877 130.069 150.621C130.65 151.365 131.374 151.774 132.243 151.846C133.102 151.906 133.923 151.631 134.704 151.021ZM137.359 137.255L140.31 134.95L148.257 145.127L145.306 147.431L137.359 137.255ZM137.726 134.684C137.184 135.107 136.62 135.294 136.033 135.245C135.446 135.195 134.971 134.937 134.606 134.471C134.242 134.004 134.107 133.48 134.201 132.899C134.296 132.318 134.614 131.816 135.156 131.392C135.698 130.969 136.258 130.776 136.835 130.812C137.412 130.849 137.877 131.095 138.232 131.548C138.616 132.04 138.766 132.583 138.681 133.177C138.587 133.758 138.269 134.26 137.726 134.684ZM149.116 127.83C150.377 126.845 151.687 126.431 153.047 126.587C154.42 126.733 155.687 127.55 156.849 129.038L161.399 134.864L158.448 137.168L154.253 131.796C153.623 130.989 152.978 130.528 152.32 130.413C151.652 130.285 150.984 130.482 150.315 131.004C149.571 131.585 149.161 132.281 149.084 133.092C148.997 133.891 149.308 134.744 150.017 135.652L153.946 140.684L150.995 142.988L143.048 132.812L145.867 130.611L146.797 131.802C146.853 131.068 147.083 130.361 147.486 129.681C147.879 128.989 148.422 128.372 149.116 127.83ZM166.736 114.314L173.353 122.788C174.811 124.654 175.409 126.421 175.147 128.087C174.885 129.753 173.82 131.315 171.954 132.772C170.97 133.541 169.944 134.149 168.874 134.599C167.804 135.049 166.802 135.273 165.867 135.272L165.386 132.238C166.09 132.256 166.849 132.11 167.662 131.8C168.485 131.502 169.225 131.097 169.881 130.585C170.902 129.788 171.47 128.968 171.585 128.128C171.722 127.289 171.427 126.404 170.698 125.471L170.358 125.036C170.249 126.481 169.507 127.741 168.132 128.814C167.199 129.543 166.184 130.011 165.087 130.218C163.993 130.402 162.928 130.3 161.893 129.91C160.858 129.521 159.962 128.841 159.203 127.87C158.445 126.899 158.002 125.864 157.875 124.765C157.748 123.667 157.912 122.615 158.366 121.611C158.823 120.584 159.518 119.707 160.451 118.978C161.926 117.826 163.428 117.435 164.955 117.805L163.936 116.5L166.736 114.314ZM166.828 125.935C167.61 125.324 168.069 124.6 168.207 123.762C168.347 122.902 168.126 122.099 167.545 121.355C166.964 120.611 166.244 120.209 165.385 120.149C164.529 120.067 163.71 120.331 162.928 120.941C162.146 121.552 161.685 122.287 161.545 123.148C161.395 123.996 161.611 124.792 162.192 125.536C162.773 126.28 163.498 126.688 164.367 126.761C165.226 126.821 166.046 126.546 166.828 125.935Z" fill="#00FFDA"/>
</g>
<g filter="url(#filter3_d_119_123)">
<path d="M123.923 19.7272C185.822 19.7272 236 69.084 236 129.969C236 190.854 180.975 234.251 119.077 234.251C57.1785 234.251 7 184.895 7 124.01C7 84.6988 27.9184 50.1936 59.4034 30.6763" stroke="#00FFDA" stroke-width="5" stroke-linecap="round"/>
<g clip-path="url(#clip0_119_123)">
<path d="M86.8913 8.50317C86.0957 8.48525 85.3269 8.7394 84.7541 9.2097C84.1813 9.68 83.8515 10.3279 83.837 11.011C83.8226 11.694 84.1249 12.3562 84.6773 12.8518C85.2297 13.3474 85.987 13.636 86.7826 13.6539L95.7823 13.8566L95.891 8.70587L86.8913 8.50317ZM98.9724 4.9104L98.3745 33.2393C98.3673 33.5808 98.5185 33.9119 98.7947 34.1597C99.0708 34.4075 99.4495 34.5518 99.8473 34.5608L102.847 34.6283C103.245 34.6373 103.629 34.5102 103.916 34.2751C104.202 34.0399 104.367 33.7159 104.374 33.3744L104.402 32.0867L107.401 32.1543C110.859 32.2317 114.232 31.2818 116.95 29.4651C119.668 27.6484 121.564 25.0764 122.318 22.184L131.618 22.3934L131.727 17.2427L122.427 17.0332C121.796 14.1096 120.01 11.4547 117.371 9.51735C114.732 7.58 111.402 6.47909 107.945 6.40077L104.945 6.33321L104.972 5.04553C104.979 4.70402 104.828 4.37293 104.552 4.12511C104.276 3.87729 103.897 3.73303 103.499 3.72407L100.499 3.65651C100.102 3.64755 99.7173 3.77462 99.4309 4.00977C99.1445 4.24492 98.9796 4.56889 98.9724 4.9104ZM86.5652 23.9553C85.7696 23.9374 85.0008 24.1915 84.428 24.6618C83.8552 25.1321 83.5254 25.7801 83.5109 26.4631C83.4965 27.1461 83.7988 27.8083 84.3512 28.3039C84.9036 28.7996 85.6609 29.0881 86.4565 29.106L95.4562 29.3087L95.5649 24.158L86.5652 23.9553Z" fill="#00FFDA"/>
</g>
</g>
<defs>
<filter id="filter0_d_119_123" x="25.999" y="9.84851" width="177.379" height="243.425" filterUnits="userSpaceOnUse" color-interpolation-filters="sRGB">
<feFlood flood-opacity="0" result="BackgroundImageFix"/>
<feColorMatrix in="SourceAlpha" type="matrix" values="0 0 0 0 0 0 0 0 0 0 0 0 0 0 0 0 0 0 127 0" result="hardAlpha"/>
<feOffset dy="4"/>
<feGaussianBlur stdDeviation="2"/>
<feComposite in2="hardAlpha" operator="out"/>
<feColorMatrix type="matrix" values="0 0 0 0 0.105882 0 0 0 0 0.584314 0 0 0 0 0.513726 0 0 0 1 0"/>
<feBlend mode="normal" in2="BackgroundImageFix" result="effect1_dropShadow_119_123"/>
<feBlend mode="normal" in="SourceGraphic" in2="effect1_dropShadow_119_123" result="shape"/>
</filter>
<filter id="filter1_d_119_123" x="53.8357" y="53.6674" width="117.43" height="91.9782" filterUnits="userSpaceOnUse" color-interpolation-filters="sRGB">
<feFlood flood-opacity="0" result="BackgroundImageFix"/>
<feColorMatrix in="SourceAlpha" type="matrix" values="0 0 0 0 0 0 0 0 0 0 0 0 0 0 0 0 0 0 127 0" result="hardAlpha"/>
<feOffset dy="5"/>
<feGaussianBlur stdDeviation="2"/>
<feComposite in2="hardAlpha" operator="out"/>
<feColorMatrix type="matrix" values="0 0 0 0 0.105882 0 0 0 0 0.584314 0 0 0 0 0.513726 0 0 0 1 0"/>
<feBlend mode="normal" in2="BackgroundImageFix" result="effect1_dropShadow_119_123"/>
<feBlend mode="normal" in="SourceGraphic" in2="effect1_dropShadow_119_123" result="shape"/>
</filter>
<filter id="filter2_d_119_123" x="69.2061" y="109.604" width="112.461" height="97.8738" filterUnits="userSpaceOnUse" color-interpolation-filters="sRGB">
<feFlood flood-opacity="0" result="BackgroundImageFix"/>
<feColorMatrix in="SourceAlpha" type="matrix" values="0 0 0 0 0 0 0 0 0 0 0 0 0 0 0 0 0 0 127 0" result="hardAlpha"/>
<feOffset dy="5"/>
<feGaussianBlur stdDeviation="2"/>
<feComposite in2="hardAlpha" operator="out"/>
<feColorMatrix type="matrix" values="0 0 0 0 0.105882 0 0 0 0 0.584314 0 0 0 0 0.513726 0 0 0 1 0"/>
<feBlend mode="normal" in2="BackgroundImageFix" result="effect1_dropShadow_119_123"/>
<feBlend mode="normal" in="SourceGraphic" in2="effect1_dropShadow_119_123" result="shape"/>
</filter>
<filter id="filter3_d_119_123" x="0.5" y="0" width="242" height="244.751" filterUnits="userSpaceOnUse" color-interpolation-filters="sRGB">
<feFlood flood-opacity="0" result="BackgroundImageFix"/>
<feColorMatrix in="SourceAlpha" type="matrix" values="0 0 0 0 0 0 0 0 0 0 0 0 0 0 0 0 0 0 127 0" result="hardAlpha"/>
<feOffset dy="4"/>
<feGaussianBlur stdDeviation="2"/>
<feComposite in2="hardAlpha" operator="out"/>
<feColorMatrix type="matrix" values="0 0 0 0 0 0 0 0 0 0 0 0 0 0 0 0 0 0 1 0"/>
<feBlend mode="normal" in2="BackgroundImageFix" result="effect1_dropShadow_119_123"/>
<feBlend mode="normal" in="SourceGraphic" in2="effect1_dropShadow_119_123" result="shape"/>
</filter>
<clipPath id="clip0_119_123">
<rect width="37.1032" height="52.848" fill="white" transform="matrix(0.0210987 -0.999777 0.999746 0.0225165 74.1655 37.095)"/>
</clipPath>
</defs>
</svg>
